<svg version="1" xmlns="http://www.w3.org/2000/svg" width="682.667" height="682.667" viewBox="0 0 512.000000 512.000000"><path d="M140.1 43.9C59.6 75.5 28.2 88.3 26.9 89.9c-1.8 2.2-1.9 7.7-1.9 150.5 0 143.1.1 148.3 1.9 150.2 1 1.1 52.2 28.9 113.9 61.7C222 495.6 253.7 512 256 512c2.3 0 34-16.4 115.2-59.7 61.7-32.8 112.9-60.6 113.9-61.7 1.8-1.9 1.9-7.1 1.9-150.2V92.1l-2.2-2.4C481.5 86.1 260.9 0 255.4.1c-2.6.1-41.6 14.9-115.3 43.8zm217.1 12.7c55.7 21.8 102 39.9 103 40.3 1.1.4-33.4 16.8-100.6 47.9C303.4 170.7 256.8 192 256 192c-2.1 0-206.1-94.4-204.9-94.9.6-.1 46.8-18.2 102.7-40.1 55.9-22 101.8-39.9 101.9-39.9.1-.1 45.8 17.7 101.5 39.5zM145.5 160.3l102 47.2.3 141.3.2 141.3-12.8-6.8c-7.1-3.7-53.4-28.4-103-54.8l-90.1-48-.1-133.8c0-73.5.3-133.7.8-133.7.4.1 46.6 21.3 102.7 47.3zM470 246.7l-.1 133.8-90.1 48c-49.6 26.4-95.9 51.1-103 54.8l-12.8 6.8V348.8l.1-141.3 102.2-47.2c56.2-26 102.5-47.2 103-47.3.4 0 .7 60.2.7 133.7z"/></svg>